# xmcd CD database file
#
# Track frame offsets:
#	150
#	7362
#	18360
#	30937
#	43612
#	54762
#	63290
#	76675
#	88522
#	99150
#	109875
#	116937
#	129835
#	142625
#	152287
#	164715
#	173512
#	181350
#	195122
#	205822
#	216162
#	227347
#	244550
#	254625
#	268587
#
# Disc length: 3759 seconds
#
# Revision: 3
# Processed by: cddbd v1.5.1PL2 Copyright (c) Steve Scherf et al.
# Submitted via: CDex 1.70beta1
#
DISCID=320ead19
DTITLE=Various Artist - Country Classics - Disc 1
DYEAR=1998
DGENRE=Country
TTITLE0=Barbara Mandrell - Kentucky Means Paradise
TTITLE1=Patsy Cline - Stop, Look and Listen
TTITLE2=George Jones - I Can't Escape From You
TTITLE3=Kitty Wells - Making Believe
TTITLE4=Dolly Parton - Honky Tonk Angels
TTITLE5=Waylon Jennings - Abilene
TTITLE6=Don Williams - Ruby Tuesday
TTITLE7=Kenny Rogers - Elvira
TTITLE8=Faron Young - If You Ain't Lovin'
TTITLE9=Waylon Jennings - Dream Baby
TTITLE10=Marty Robbins - Maybellene
TTITLE11=Jerry Lee Lewis - Good Rockin' Tonight
TTITLE12=Dolly Parton - Little Blossom
TTITLE13=Ned Miller - From A Jack To A King
TTITLE14=Willie Nelson - I Can't Find The Time
TTITLE15=Waylon Jennings - Love's Gonna Live Here
TTITLE16=George Jones - Jambalaya
TTITLE17=Don Williams - Where Do We Go From Here
TTITLE18=Kenny Rogers - Homemade Lies
TTITLE19=Patsy Cline - Turn The Cards Slowly
TTITLE20=Stonewall Jackson - Things To Talk About
TTITLE21=Johnny Lee - Your Song
TTITLE22=Willie Nelson - I Didn't Sleep A Wink
TTITLE23=George Jones - Cold Cold Heart
TTITLE24=Gene Pitney - Town Without Pity
EXTD=YEAR: 1998
EXTT0=
EXTT1=
EXTT2=
EXTT3=
EXTT4=
EXTT5=
EXTT6=
EXTT7=
EXTT8=
EXTT9=
EXTT10=
EXTT11=
EXTT12=
EXTT13=
EXTT14=
EXTT15=
EXTT16=
EXTT17=
EXTT18=
EXTT19=
EXTT20=
EXTT21=
EXTT22=
EXTT23=
EXTT24=
PLAYORDER=
